<svg enable-background="new 0 0 75 72" height="72" viewBox="0 0 75 72" width="75" xmlns="http://www.w3.org/2000/svg"><g fill="#fff"><path d="m16.1 12.9v-4.3c0-.2 0-.3.1-.4.8-3.3 5.3-6.4 13.9-8.1-1-.1-2.1-.1-3.2-.1-14.1 0-25.8 3.8-26.9 8.6v4.1.2c0 2.9 7.8 5.3 21.4 5.6-4.6-1.1-5.3-2.8-5.3-5.6z"/><path d="m32.2 51.4v-16.7l-10.6-12.8c-7.5-.3-13.8-1.3-17.7-2.6l12.2 14.6v17.4c0 1.6 1.3 3 3 3h14.2c-.7-.8-1.1-1.8-1.1-2.9z"/><path d="m34.8 65.8c-.5-1.6-.7-3.1-.7-4.6v-4h-16.1v4c0 1.4.2 2.7.6 4 .2.6.6 1.2 1.1 1.5 4.9 4.9-.4-.4 5.4 5.3h3.9c6-6 0 0 5.9-6-.1 0-.1-.1-.1-.2z"/><path d="m73.9 8.6c-1.1-4.8-12.7-8.6-26.8-8.6s-25.9 3.8-27 8.6v4.1.2c0 3.1 12.1 5.7 26.9 5.7s27-2.6 27-5.7c0-.1 0-.1 0-.2z"/><path d="m47.1 22c-9.8 0-18.3-1.1-23-2.7l12.2 14.6v17.4c0 1.6 1.3 3 3 3h15.8c1.6 0 3-1.3 3-3v-17.6l12-14.3c-5 1.6-13.4 2.6-23 2.6z"/><path d="m38.1 61.2c0 1.4.2 2.7.6 4 .2.6.6 1.2 1.1 1.5 4.9 4.9-.4-.4 5.4 5.3h3.9c6-6 0 0 6-6v-.2c.3-.3.5-.7.6-1.2.3-1.2.4-2.3.4-3.5v-3.9h-18z"/></g></svg>