<svg enable-background="new 0 0 54 72" height="72" viewBox="0 0 54 72" width="54" xmlns="http://www.w3.org/2000/svg"><g fill="#111"><path d="m53.9 8.6c-1.1-4.8-12.7-8.6-26.9-8.6s-25.8 3.8-26.9 8.6h-.1v4.1.2c0 3.1 12.1 5.7 27 5.7s27-2.6 27-5.7c0-.1 0-.1 0-.2z"/><path d="m27 22c-9.8 0-18.3-1.1-23.1-2.7l12.2 14.6v17.4c0 1.6 1.3 3 3 3h15.8c1.6 0 3-1.3 3-3v-17.6l12-14.3c-4.8 1.6-13.2 2.6-22.9 2.6z"/><path d="m18 61.1c0 1.4.2 2.7.6 4 .2.6.6 1.2 1.1 1.5 4.9 4.9-.4-.4 5.4 5.3h3.9c6-6 0 0 6-6v-.2c.3-.3.5-.7.6-1.2.3-1.2.4-2.3.4-3.5v-3.9h-18z"/></g></svg>